<svg width="35" height="40" viewBox="0 0 35 40" fill="none" xmlns="http://www.w3.org/2000/svg">
<mask id="path-2-outside-1_3_590" maskUnits="userSpaceOnUse" x="1.0144" y="1.2027" width="32" height="39" fill="black">
<rect fill="white" x="1.0144" y="1.2027" width="32" height="39"/>
<path d="M29.9854 17.1882C29.9854 26.9273 16.9999 36.6665 16.9999 36.6665C16.9999 36.6665 4.0144 26.9273 4.0144 17.1882C4.0144 13.7442 5.38251 10.4413 7.81776 8.00607C10.253 5.57081 13.5559 4.2027 16.9999 4.2027C20.4439 4.2027 23.7468 5.57081 26.182 8.00607C28.6173 10.4413 29.9854 13.7442 29.9854 17.1882Z"/>
</mask>
<path d="M29.9854 17.1882C29.9854 26.9273 16.9999 36.6665 16.9999 36.6665C16.9999 36.6665 4.0144 26.9273 4.0144 17.1882C4.0144 13.7442 5.38251 10.4413 7.81776 8.00607C10.253 5.57081 13.5559 4.2027 16.9999 4.2027C20.4439 4.2027 23.7468 5.57081 26.182 8.00607C28.6173 10.4413 29.9854 13.7442 29.9854 17.1882Z" fill="#00AEEF"/>
<path d="M29.9854 17.1882H32.9854H29.9854ZM16.9999 36.6665L15.1999 39.0665C16.2666 39.8665 17.7332 39.8665 18.7999 39.0665L16.9999 36.6665ZM16.9999 4.2027V1.2027V4.2027ZM26.9854 17.1882C26.9854 20.8727 24.4276 25.0121 21.2504 28.5864C19.7322 30.2944 18.2047 31.7275 17.0534 32.7348C16.4799 33.2366 16.0051 33.6282 15.6787 33.8904C15.5156 34.0215 15.39 34.1199 15.308 34.1835C15.267 34.2152 15.237 34.2382 15.2187 34.2522C15.2096 34.2591 15.2034 34.2638 15.2002 34.2662C15.1986 34.2674 15.1978 34.268 15.1977 34.2681C15.1977 34.2681 15.1979 34.268 15.1982 34.2677C15.1984 34.2676 15.1988 34.2673 15.1989 34.2672C15.1994 34.2669 15.1999 34.2665 16.9999 36.6665C18.7999 39.0665 18.8005 39.066 18.8012 39.0655C18.8015 39.0653 18.8022 39.0648 18.8028 39.0643C18.8039 39.0635 18.8053 39.0625 18.8068 39.0613C18.8099 39.059 18.8138 39.056 18.8184 39.0525C18.8277 39.0455 18.8401 39.0361 18.8556 39.0243C18.8864 39.0008 18.9293 38.9679 18.9835 38.926C19.0917 38.8421 19.245 38.7218 19.437 38.5675C19.8208 38.2591 20.3605 37.8137 21.0044 37.2503C22.2879 36.1272 24.0067 34.5168 25.7349 32.5726C29.0504 28.8426 32.9854 23.2429 32.9854 17.1882H26.9854ZM16.9999 36.6665C18.7999 34.2665 18.8004 34.2669 18.8009 34.2672C18.801 34.2673 18.8014 34.2676 18.8016 34.2677C18.8019 34.268 18.8021 34.2681 18.8021 34.2681C18.802 34.268 18.8012 34.2674 18.7996 34.2662C18.7964 34.2638 18.7902 34.2591 18.7811 34.2522C18.7628 34.2382 18.7328 34.2152 18.6918 34.1835C18.6098 34.1199 18.4842 34.0215 18.3211 33.8904C17.9947 33.6282 17.5199 33.2366 16.9464 32.7348C15.7952 31.7275 14.2676 30.2944 12.7494 28.5864C9.57219 25.0121 7.0144 20.8727 7.0144 17.1882H1.0144C1.0144 23.2429 4.94936 28.8426 8.26492 32.5726C9.99308 34.5168 11.7119 36.1272 12.9954 37.2503C13.6393 37.8137 14.179 38.2591 14.5628 38.5675C14.7548 38.7218 14.9081 38.8421 15.0164 38.926C15.0705 38.9679 15.1134 39.0008 15.1442 39.0243C15.1597 39.0361 15.1721 39.0455 15.1814 39.0525C15.186 39.056 15.1899 39.059 15.193 39.0613C15.1946 39.0625 15.1959 39.0635 15.1971 39.0643C15.1976 39.0648 15.1983 39.0653 15.1986 39.0655C15.1993 39.066 15.1999 39.0665 16.9999 36.6665ZM7.0144 17.1882C7.0144 14.5399 8.06644 12 9.93908 10.1274L5.69644 5.88475C2.69858 8.88261 1.0144 12.9486 1.0144 17.1882H7.0144ZM9.93908 10.1274C11.8117 8.25474 14.3516 7.2027 16.9999 7.2027V1.2027C12.7603 1.2027 8.69431 2.88688 5.69644 5.88475L9.93908 10.1274ZM16.9999 7.2027C19.6482 7.2027 22.1881 8.25474 24.0607 10.1274L28.3034 5.88475C25.3055 2.88688 21.2395 1.2027 16.9999 1.2027V7.2027ZM24.0607 10.1274C25.9334 12 26.9854 14.5399 26.9854 17.1882H32.9854C32.9854 12.9486 31.3012 8.88261 28.3034 5.88475L24.0607 10.1274Z" fill="#092E82" mask="url(#path-2-outside-1_3_590)"/>
<path d="M14.1023 11H11V25.1556H14.1023V16.1609L20.8977 25.1556H24V11H20.8977V20.1421L14.1023 11Z" fill="white"/>
</svg>
